<?xml version="1.0" standalone="no"?>
<!DOCTYPE svg PUBLIC "-//W3C//DTD SVG 20010904//EN"
 "http://www.w3.org/TR/2001/REC-SVG-20010904/DTD/svg10.dtd">
<svg version="1.0" xmlns="http://www.w3.org/2000/svg"
 width="404.000000pt" height="404.000000pt" viewBox="0 0 404.000000 404.000000"
 preserveAspectRatio="xMidYMid meet">

<g transform="translate(0.000000,404.000000) scale(0.100000,-0.100000)"
fill="#000000" stroke="none">
<path d="M1870 3904 c-526 -48 -997 -300 -1327 -712 -361 -451 -489 -1041
-353 -1629 121 -520 496 -985 998 -1237 165 -83 382 -151 567 -177 116 -17
424 -17 540 0 308 44 621 177 877 373 104 79 278 253 355 355 350 464 467
1047 324 1618 -114 455 -428 880 -844 1137 -195 121 -444 213 -687 254 -86 14
-367 25 -450 18z m290 -344 c657 -58 1208 -532 1365 -1175 72 -291 51 -637
-55 -910 -92 -236 -248 -462 -428 -619 -243 -212 -562 -347 -887 -376 -293
-26 -572 30 -846 171 -685 352 -1000 1161 -739 1896 98 274 284 527 517 703
244 183 534 292 833 313 94 7 128 7 240 -3z"/>
<path d="M1833 2665 c-124 -27 -210 -95 -262 -204 l-26 -56 -3 -380 c-2 -232
1 -406 8 -450 21 -143 94 -231 230 -277 52 -18 88 -22 180 -23 133 0 201 20
285 83 106 80 134 159 138 382 l2 125 -192 3 -193 2 -1 -137 c-1 -165 -6 -188
-39 -188 -21 0 -26 6 -32 40 -9 51 -9 715 0 775 6 37 11 46 29 48 35 5 43 -32
43 -209 l0 -159 197 0 196 0 -6 153 c-9 237 -28 300 -117 380 -101 91 -275
127 -437 92z"/>
<path d="M890 1975 l0 -675 190 0 190 0 2 273 3 272 108 3 107 3 0 144 0 144
-107 3 -108 3 -3 98 -3 97 121 0 120 0 0 155 0 155 -310 0 -310 0 0 -675z"/>
<path d="M2402 2498 l3 -153 98 -3 97 -3 0 -519 0 -520 195 0 195 0 0 520 0
520 100 0 100 0 0 155 0 155 -395 0 -396 0 3 -152z"/>
</g>
</svg>
